<svg xmlns="http://www.w3.org/2000/svg" width="27.406" height="26.736" viewBox="0 0 27.406 26.736">
  <path id="estrela_branca_icon" d="M76.942,17.965l-.7.682L72.06,22.725a1.568,1.568,0,0,0-.448,1.39l1.153,6.716a1.579,1.579,0,0,1-1.553,1.853,1.62,1.62,0,0,1-.741-.185l-6.008-3.18a1.62,1.62,0,0,0-.741-.174,1.6,1.6,0,0,0-.741.174L56.96,32.473a1.553,1.553,0,0,1-.741.185A1.575,1.575,0,0,1,54.662,30.8l1.153-6.716a1.568,1.568,0,0,0-.448-1.39l-4.174-4.077-.7-.682a1.568,1.568,0,0,1,.871-2.68l3.87-.567,2.865-.419a1.538,1.538,0,0,0,1.182-.86l3.4-6.809a1.16,1.16,0,0,1,2.09,0l3.373,6.835a1.568,1.568,0,0,0,1.182.86l2.873.419,3.873.567a1.572,1.572,0,0,1,.871,2.68Z" transform="translate(-50.01 -5.948)" fill="#f2f4ff"/>
</svg>
