<svg xmlns="http://www.w3.org/2000/svg" width="142.89" height="64.615" viewBox="0 0 142.89 64.615">
  <g id="plano_1_icon" transform="translate(0 -0.044)">
    <g id="Camada_1" data-name="Camada 1" transform="translate(0 0.044)">
      <path id="Caminho_456" data-name="Caminho 456" d="M34.636,36.369l8.971,8.736a2.39,2.39,0,0,1,.679,2.091h0a2.363,2.363,0,0,1-2.327,1.964H17.019A17.019,17.019,0,0,1,0,32.142v-.072A17.019,17.019,0,0,1,17.019,15.05h32.59l-8.428,1.222a11.769,11.769,0,0,0-6.545,20.1Z" transform="translate(0 -1.465)" fill="#1c3053"/>
      <path id="Caminho_457" data-name="Caminho 457" d="M95.694,40.968a2.87,2.87,0,0,0-.815,2.535L95.6,47.74l1.983,11.6a4.445,4.445,0,0,1-.987,3.684A4.572,4.572,0,0,1,93.1,64.659,4.454,4.454,0,0,1,91,64.125L76.783,56.657a2.815,2.815,0,0,0-2.662,0L59.908,64.125a4.454,4.454,0,0,1-2.109.534A4.572,4.572,0,0,1,54.3,63.021a4.445,4.445,0,0,1-.987-3.684L55.3,47.74l.724-4.237a2.87,2.87,0,0,0-.815-2.535L43.7,29.77a4.526,4.526,0,0,1,2.526-7.758L62.117,19.7a2.87,2.87,0,0,0,2.155-1.593L66.5,13.583l5.73-11.569a3.621,3.621,0,0,1,6.446,0l5.73,11.615,2.227,4.526a2.87,2.87,0,0,0,2.155,1.566l15.888,2.308a4.526,4.526,0,0,1,2.535,7.74Z" transform="translate(-4.007 -0.044)" fill="#e41d2f"/>
      <path id="Caminho_458" data-name="Caminho 458" d="M118.014,36.369l-8.971,8.736a2.39,2.39,0,0,0-.679,2.091h0a2.372,2.372,0,0,0,2.327,1.964h24.95a17.019,17.019,0,0,0,17.01-17.019v-.072A17.019,17.019,0,0,0,135.64,15.05H103.05l8.392,1.222a11.769,11.769,0,0,1,6.545,20.1Z" transform="translate(-9.761 -1.465)" fill="#1c3053"/>
    </g>
  </g>
</svg>
