<svg xmlns="http://www.w3.org/2000/svg" viewBox="0 0 121.66 79.55"><defs><style>.cls-1{fill:#1c3053;}.cls-2{fill:#e41d2f;}</style></defs><title>plano_4_icon</title><g id="Camada_2" data-name="Camada 2"><g id="plano_3_icon" data-name="plano 3 icon"><path class="cls-1" d="M0,0Q11.69,8.4,23.37,16.79c.69.49.81.8.3,1.53q-9.42,13.45-18.74,27c-.42.61-.7.8-1.43.35C2.39,45,1.17,44.41,0,43.81Z"/><path class="cls-1" d="M121.64.21V18c0,8.27,0,16.54,0,24.81a1.31,1.31,0,0,1-.86,1.38A22.93,22.93,0,0,0,118,45.68c-.66.43-.9.21-1.26-.31q-9.43-13.65-18.93-27.26c-.28-.41-.49-.66.08-1.06Q109.68,8.63,121.4.19A1.77,1.77,0,0,1,121.64.21Z"/><path class="cls-1" d="M31.77,22.91c-.14.22-.26.41-.39.59q-9.3,13.14-18.6,26.28c-.34.48-.59.56-1.11.24a28.49,28.49,0,0,0-2.78-1.49c-.72-.33-.63-.63-.25-1.18Q17.94,34,27.19,20.65c.39-.56.64-.7,1.23-.22.9.73,1.88,1.37,2.82,2.05C31.42,22.61,31.59,22.77,31.77,22.91Z"/><path class="cls-1" d="M93.83,20.05c.4.11.5.47.68.72q6.83,9.8,13.62,19.61c1.62,2.33,3.23,4.68,4.88,7,.41.56.41.85-.29,1.17A26.34,26.34,0,0,0,110,50c-.55.34-.78.19-1.11-.27Q99.56,36.62,90.23,23.49c-.33-.47-.32-.7.18-1,1-.66,2-1.39,2.93-2.09C93.49,20.25,93.66,20.15,93.83,20.05Z"/><path class="cls-2" d="M52.05,28.58a5.86,5.86,0,0,0-2,4.76,6,6,0,0,0,5.88,5.52A22.77,22.77,0,0,0,66.14,37.5a1.66,1.66,0,0,1,1.64.13q13,7.83,26,15.63c1.6,1,2.17,2.37,1.63,3.8a3.38,3.38,0,0,1-5.09,1.41c-2.92-1.86-5.79-3.76-8.69-5.65-1.66-1.07-3.31-2.16-5-3.22-1.33-.86-2.59-.75-3.35.25s-.42,2.24.94,3.13L87,61.29a4.39,4.39,0,0,1,1.83,1.84A2.94,2.94,0,0,1,88,66.5a3.24,3.24,0,0,1-3.74.37c-1.28-.73-2.5-1.56-3.74-2.36L70.43,58a6.42,6.42,0,0,0-1.12-.61,2.1,2.1,0,0,0-2.53.67,1.84,1.84,0,0,0,.2,2.55,6.55,6.55,0,0,0,1,.77c3.12,2,6.23,4.07,9.37,6.08a3.45,3.45,0,0,1,1.74,2.29,2.88,2.88,0,0,1-1.42,3.19,3.26,3.26,0,0,1-3.67-.1c-2.27-1.49-4.52-3-6.78-4.52q-2.55-1.71-3.83,0c-.85,1.14-.44,2.19,1.33,3.38,1.15.78,2.34,1.53,3.44,2.37a2.91,2.91,0,0,1,1.17,3.3A3.05,3.05,0,0,1,67,79.45a3.4,3.4,0,0,1-2.7-.51c-2.15-1.32-4.27-2.69-6.42-4-.46-.28-.54-.51-.29-1a5.88,5.88,0,0,0-4.29-8.53.84.84,0,0,1-.8-.88,6,6,0,0,0-5.83-5.35c-.68-.05-.8-.27-.92-.83C44.73,53.43,40,51,35.09,53c-.51.2-.69.17-1-.32-2-3.75-6.16-4.7-9.85-2.29-.85.55-1.66,1.14-2.45,1.76a.79.79,0,0,1-1.19,0c-.88-.75-2.34-1.32-2.56-2.18s1-1.78,1.67-2.67c4.19-5.91,8.4-11.81,12.55-17.74a2.13,2.13,0,0,1,2-1c5.46,0,10.92,0,16.39,0Z"/><path class="cls-2" d="M54.34,33a1.67,1.67,0,0,1,1-1.58,30.68,30.68,0,0,0,5.37-3.63,6.27,6.27,0,0,1,3.9-1.14,17.89,17.89,0,0,1,9,1.46c1.37.66,2.88,1,4.23,1.73a6.16,6.16,0,0,0,5,.29c1.68-.55,3.43-.87,5.13-1.35A.81.81,0,0,1,89,29.1q6,8.53,12.11,17.06c.33.46.22.69-.15,1q-1.62,1.47-3.19,3c-.36.35-.58.39-1.06.09q-14-8.64-28.11-17a2.8,2.8,0,0,0-2.8-.09,18.61,18.61,0,0,1-9.32,1.62C55.05,34.69,54.37,34.12,54.34,33Z"/><path class="cls-2" d="M31.48,67.37a3.16,3.16,0,0,1-3-1.88,2.54,2.54,0,0,1,.62-3.19,66.31,66.31,0,0,1,7.68-5.58,3.14,3.14,0,0,1,4.08.93,2.82,2.82,0,0,1-.52,4c-2.32,1.79-4.73,3.47-7.11,5.19A3.13,3.13,0,0,1,31.48,67.37Z"/><path class="cls-2" d="M38.34,73.12a2.14,2.14,0,0,1-2.26-1.3,1.83,1.83,0,0,1,.73-2.28c1.44-1.1,2.92-2.15,4.38-3.23,1.15-.84,2.28-1.71,3.45-2.53a2.21,2.21,0,0,1,3.15.23,1.91,1.91,0,0,1-.56,2.92c-2.5,1.86-5,3.71-7.55,5.55C39.21,72.82,38.73,73.17,38.34,73.12Z"/><path class="cls-2" d="M54,71.26A2,2,0,0,1,53,73c-1.68,1.23-3.35,2.48-5.06,3.67a2.22,2.22,0,0,1-3.14-.27c-.74-.93-.51-2.08.62-2.92,1.68-1.24,3.36-2.46,5.06-3.67a2.13,2.13,0,0,1,2.33-.23A1.9,1.9,0,0,1,54,71.26Z"/><path class="cls-2" d="M30.41,55a2.09,2.09,0,0,1-.91,1.71C27.82,58,26.14,59.2,24.43,60.4a2.23,2.23,0,0,1-3.23-.28c-.69-.91-.41-2.09.71-2.92C23.59,56,25.28,54.74,27,53.53a2.14,2.14,0,0,1,2.33-.16A2,2,0,0,1,30.41,55Z"/></g></g></svg>