<svg id="plano_3_icon" xmlns="http://www.w3.org/2000/svg" width="162.712" height="68.127" viewBox="0 0 162.712 68.127">
  <g id="Camada_1" data-name="Camada 1">
    <path id="Caminho_459" data-name="Caminho 459" d="M53.213,1.719l-6.38,2.887H24.145L17.03,1.691,22.923,0,47.486.046Z" transform="translate(-1.375)" fill="#1c3053"/>
    <path id="Caminho_460" data-name="Caminho 460" d="M24.485,42.227,2.9,18.05,14.363,23.1Z" transform="translate(-0.234 -1.457)" fill="#1c3053"/>
    <path id="Caminho_461" data-name="Caminho 461" d="M45.5,40.433l-7.52,14.359L21.96,25.44H33.037L44.914,39.8Z" transform="translate(-1.773 -2.054)" fill="#1c3053"/>
    <path id="Caminho_462" data-name="Caminho 462" d="M15.067,18.23,0,11.676,11.234,3.43l9.395,3.852Z" transform="translate(0 -0.277)" fill="#1c3053"/>
    <path id="Caminho_463" data-name="Caminho 463" d="M49.827,8.814,35.661,19.367H21.78L27.158,8.74Z" transform="translate(-1.758 -0.706)" fill="#1c3053"/>
    <path id="Caminho_464" data-name="Caminho 464" d="M75.959,18.15l-.469.193.092-.193Z" transform="translate(-6.094 -1.465)" fill="#e41d2f"/>
    <path id="Caminho_465" data-name="Caminho 465" d="M75.961,6.62l10.526.028v5.736H71.4L63.56,9.405l7.979-2.261.892-.257.938-.267Z" transform="translate(-5.131 -0.534)" fill="#e41d2f"/>
    <path id="Caminho_466" data-name="Caminho 466" d="M42.71,22.78l12.364,5.387h0Z" transform="translate(-3.448 -1.839)" fill="#e41d2f"/>
    <path id="Caminho_467" data-name="Caminho 467" d="M75.959,18.15l-.469.193.092-.193Z" transform="translate(-6.094 -1.465)" fill="#e41d2f"/>
    <path id="Caminho_468" data-name="Caminho 468" d="M76.608,65.083,52.8,38.434l-.818-.892-.818-.938L44.58,29.25l8.5,3.714,1.085.469,1.076.469,5.736,2.491Z" transform="translate(-3.599 -2.361)" fill="#e41d2f"/>
    <path id="Caminho_469" data-name="Caminho 469" d="M61.372,29.986l-3.337-1.434-2.96-1.3L42.72,21.878,56.629,11.61l11.629,4.743Z" transform="translate(-3.449 -0.937)" fill="#e41d2f"/>
    <path id="Caminho_470" data-name="Caminho 470" d="M75.387,18.142l11.491-.092V31.214H68.41l6.508-12.879Z" transform="translate(-5.522 -1.457)" fill="#e41d2f"/>
    <path id="Caminho_471" data-name="Caminho 471" d="M68.61,37.53H86.894V71.157Z" transform="translate(-5.539 -3.03)" fill="#e41d2f"/>
    <path id="Caminho_472" data-name="Caminho 472" d="M120.6,1.719l6.389,2.887h22.688l7.115-2.914L150.89,0,126.336.046Z" transform="translate(-9.735)" fill="#1c3053"/>
    <path id="Caminho_473" data-name="Caminho 473" d="M150.62,42.227,172.2,18.05,160.732,23.1Z" transform="translate(-12.159 -1.457)" fill="#1c3053"/>
    <path id="Caminho_474" data-name="Caminho 474" d="M129.42,40.433l7.52,14.359L152.972,25.44H141.895L130.008,39.8Z" transform="translate(-10.447 -2.054)" fill="#1c3053"/>
    <path id="Caminho_475" data-name="Caminho 475" d="M160.121,18.23l15.067-6.554L163.954,3.43l-9.4,3.852Z" transform="translate(-12.476 -0.277)" fill="#1c3053"/>
    <path id="Caminho_476" data-name="Caminho 476" d="M124.7,8.814l14.175,10.553h13.881L147.369,8.74Z" transform="translate(-10.066 -0.706)" fill="#1c3053"/>
    <path id="Caminho_477" data-name="Caminho 477" d="M101,18.15l.469.193-.092-.193Z" transform="translate(-8.153 -1.465)" fill="#e41d2f"/>
    <path id="Caminho_478" data-name="Caminho 478" d="M99.026,6.62,88.5,6.648v5.736h15.076l7.851-2.978-7.979-2.261-.9-.257-.938-.267Z" transform="translate(-7.144 -0.534)" fill="#e41d2f"/>
    <path id="Caminho_479" data-name="Caminho 479" d="M133.194,22.78,120.83,28.167h0Z" transform="translate(-9.754 -1.839)" fill="#e41d2f"/>
    <path id="Caminho_480" data-name="Caminho 480" d="M101,18.15l.469.193-.092-.193Z" transform="translate(-8.153 -1.465)" fill="#e41d2f"/>
    <path id="Caminho_481" data-name="Caminho 481" d="M97.57,65.083l23.809-26.65.818-.892.818-.938L129.6,29.25l-8.5,3.714-1.085.469-1.076.469L113.2,36.393Z" transform="translate(-7.876 -2.361)" fill="#e41d2f"/>
    <path id="Caminho_482" data-name="Caminho 482" d="M113.375,29.986l3.337-1.434,2.96-1.3,12.364-5.378L118.128,11.61,106.49,16.353Z" transform="translate(-8.596 -0.937)" fill="#e41d2f"/>
    <path id="Caminho_483" data-name="Caminho 483" d="M99.991,18.142,88.5,18.05V31.214h18.468L100.46,18.335Z" transform="translate(-7.144 -1.457)" fill="#e41d2f"/>
    <path id="Caminho_484" data-name="Caminho 484" d="M106.784,37.53H88.5V71.157Z" transform="translate(-7.144 -3.03)" fill="#e41d2f"/>
  </g>
</svg>
